<?xml version="1.0" encoding="iso-8859-1"?>
<!-- Generator: Adobe Illustrator 19.0.1, SVG Export Plug-In . SVG Version: 6.00 Build 0)  -->
<!DOCTYPE svg PUBLIC "-//W3C//DTD SVG 1.1//EN" "http://www.w3.org/Graphics/SVG/1.1/DTD/svg11.dtd">
<svg version="1.1" id="Layer_1" xmlns="http://www.w3.org/2000/svg" xmlns:xlink="http://www.w3.org/1999/xlink" x="0px" y="0px"
	 viewBox="0 0 120 120" style="enable-background:new 0 0 120 120;" xml:space="preserve">
<path id="success" style="fill-rule:evenodd;clip-rule:evenodd;fill:#63DA38;" d="M60,0C26.863,0,0,26.863,0,60s26.863,60,60,60
	s60-26.863,60-60S93.137,0,60,0 M87.261,37.343L56.109,85.288c-1.078,1.659-3.017,2.701-5.126,2.76
	c-2.116,0.059-4.12-0.874-5.303-2.467L29.996,66.979c-1.923-2.577-1.183-6.083,1.633-7.834c2.825-1.747,6.672-1.08,8.587,1.497
	l10.083,12.692l26.94-41.739c1.746-2.681,4.92-3.566,7.857-1.976C88.025,31.205,88.999,34.666,87.261,37.343"/>
</svg>
